<?xml version="1.0" standalone="no"?>
<!DOCTYPE svg PUBLIC "-//W3C//DTD SVG 20010904//EN"
 "http://www.w3.org/TR/2001/REC-SVG-20010904/DTD/svg10.dtd">
<svg version="1.0" xmlns="http://www.w3.org/2000/svg"
 width="1280.000000pt" height="1280.000000pt" viewBox="0 0 1280.000000 1280.000000"
 preserveAspectRatio="xMidYMid meet">
<metadata>
Created by potrace 1.14, written by Peter Selinger 2001-2017
</metadata>
<g transform="translate(0.000000,1280.000000) scale(0.100000,-0.100000)"
fill="#000000" stroke="none">
<path d="M6300 12634 c-63 -13 -133 -26 -155 -30 -22 -3 -42 -7 -45 -9 -3 -2
-21 -6 -40 -9 -19 -3 -46 -8 -60 -11 -14 -3 -38 -8 -55 -11 -16 -3 -145 -28
-285 -55 -140 -28 -265 -53 -277 -55 -13 -2 -35 -6 -50 -9 -16 -3 -39 -8 -53
-11 -26 -5 -108 -21 -150 -29 -14 -3 -41 -8 -60 -11 -19 -3 -42 -7 -50 -9 -8
-2 -31 -7 -50 -10 -19 -3 -42 -8 -50 -10 -8 -2 -31 -7 -50 -10 -19 -3 -91 -17
-160 -31 -118 -24 -356 -70 -410 -80 -14 -2 -59 -11 -100 -19 -41 -8 -86 -17
-100 -19 -14 -3 -36 -8 -50 -11 -14 -3 -40 -8 -59 -11 -18 -3 -43 -8 -55 -10
-11 -2 -33 -6 -47 -9 -14 -3 -104 -20 -200 -39 -96 -19 -187 -37 -204 -40 -16
-3 -41 -8 -55 -11 -14 -3 -36 -7 -50 -10 -14 -2 -71 -13 -128 -24 -56 -11
-117 -23 -135 -26 -17 -3 -39 -8 -47 -10 -8 -2 -28 -7 -45 -10 -16 -3 -43 -7
-60 -10 -48 -9 -138 -26 -165 -32 -14 -4 -34 -7 -45 -9 -23 -3 -58 -10 -130
-25 -27 -6 -61 -13 -75 -15 -14 -3 -127 -25 -252 -49 -125 -25 -242 -47 -260
-50 -18 -4 -143 -28 -278 -55 -135 -26 -258 -50 -275 -53 -16 -3 -64 -12 -105
-20 -41 -9 -86 -18 -100 -20 -24 -5 -100 -20 -110 -22 -3 -1 -26 -5 -52 -9
-39 -7 -53 -16 -81 -50 -43 -54 -107 -144 -107 -152 0 -3 -9 -18 -20 -33 -21
-30 -110 -204 -114 -224 -2 -7 -8 -25 -15 -42 -40 -97 -54 -190 -55 -355 0
-150 6 -255 19 -335 28 -168 48 -240 90 -312 27 -45 67 -93 79 -93 4 0 46 -27
94 -60 48 -33 94 -65 102 -70 8 -6 41 -28 72 -48 l58 -38 -21 -40 c-12 -21
-32 -50 -45 -63 l-23 -25 -73 17 c-40 10 -83 17 -95 17 -26 0 -113 -40 -113
-52 0 -4 -5 -8 -10 -8 -17 0 -90 -71 -117 -113 -47 -75 -81 -202 -89 -332 -3
-66 -7 -121 -8 -122 -1 -1 -36 -7 -121 -19 -88 -12 -151 -55 -214 -147 -69
-102 -135 -268 -165 -417 -3 -14 -8 -36 -11 -50 -3 -14 -7 -41 -10 -60 -2 -19
-4 -35 -5 -35 -5 0 -10 -94 -11 -180 -2 -87 1 -121 16 -220 15 -96 79 -289
142 -429 l36 -79 -16 -51 c-8 -28 -19 -69 -23 -91 -4 -22 -8 -42 -9 -45 -28
-106 -39 -200 -39 -340 0 -176 17 -321 54 -455 36 -134 41 -142 245 -384 11
-13 25 -29 30 -35 6 -6 46 -54 90 -106 91 -108 125 -147 143 -166 11 -11 8
-15 -13 -20 -17 -4 -34 -23 -55 -63 -59 -108 -80 -121 -183 -116 -42 2 -84 8
-94 13 -10 6 -20 10 -23 9 -3 0 -22 5 -42 12 -34 11 -41 10 -70 -11 -90 -63
-150 -159 -215 -343 -13 -38 -26 -81 -29 -95 -3 -14 -9 -38 -14 -55 -40 -131
-48 -511 -15 -680 2 -11 4 -20 5 -20 1 0 4 -13 6 -30 3 -16 12 -55 21 -85 9
-30 15 -56 14 -58 -7 -10 78 -148 103 -166 30 -22 84 -59 266 -186 47 -33 90
-63 95 -67 6 -5 53 -37 105 -73 52 -35 104 -72 114 -82 11 -10 25 -18 32 -18
7 0 14 -4 16 -8 2 -4 84 -64 183 -132 99 -68 182 -127 185 -130 3 -3 13 -9 22
-15 9 -5 133 -91 274 -190 142 -99 296 -206 343 -239 122 -83 185 -129 189
-138 2 -5 9 -8 14 -8 6 0 48 -26 92 -58 45 -32 104 -74 131 -92 28 -19 52 -36
55 -39 3 -3 13 -10 22 -16 25 -15 202 -138 208 -144 13 -15 100 -71 109 -71 6
0 11 -3 11 -7 0 -5 25 -24 55 -43 30 -19 55 -38 55 -42 0 -5 6 -8 14 -8 8 0
16 -3 18 -8 2 -4 32 -27 68 -51 36 -25 85 -59 110 -76 173 -121 527 -367 585
-407 39 -26 81 -56 94 -66 19 -13 163 -114 291 -202 22 -16 413 -288 430 -300
8 -6 60 -42 115 -80 55 -38 107 -74 115 -80 8 -6 103 -72 210 -146 213 -148
209 -145 295 -206 33 -24 80 -56 104 -72 25 -16 50 -33 55 -38 11 -9 224 -158
321 -224 28 -18 68 -47 90 -63 22 -16 71 -49 110 -73 58 -36 78 -43 121 -43
28 0 62 5 75 12 21 11 224 94 554 229 61 25 119 49 130 54 32 15 509 211 520
214 6 2 36 15 69 29 32 15 60 27 62 27 5 0 703 287 739 304 17 8 50 22 75 31
25 9 59 23 75 30 17 8 59 26 95 40 36 15 79 33 95 40 17 7 116 48 220 90 291
119 428 175 450 185 11 5 49 21 85 35 36 14 89 37 118 51 29 13 55 24 58 24 6
0 174 68 259 105 17 7 55 23 85 35 30 12 69 28 85 35 17 7 98 41 180 74 83 34
164 69 182 77 17 7 34 14 38 14 4 0 21 7 38 15 18 8 104 44 192 80 88 36 169
70 180 75 11 5 83 35 160 66 185 74 492 202 533 221 76 36 95 121 48 217 -22
46 -39 62 -133 126 -60 41 -112 78 -118 82 -12 11 -171 121 -242 168 -64 42
-77 76 -77 200 0 134 19 168 159 285 139 116 198 200 209 300 2 17 4 33 5 37
0 4 28 17 62 29 148 54 153 200 9 275 -114 60 -538 264 -548 264 -7 0 -12 4
-12 9 0 5 -10 13 -22 16 -13 4 -103 47 -201 95 l-177 87 35 51 c19 29 35 55
35 59 0 5 10 18 23 29 19 19 55 28 142 38 64 7 93 67 70 143 -7 21 -1 26 52
38 10 3 47 13 83 24 36 11 115 34 175 51 61 17 124 35 140 41 17 5 68 20 115
33 47 14 141 41 210 62 69 20 134 39 146 41 12 3 30 22 42 45 35 69 15 147
-47 186 -121 76 -303 186 -345 208 -27 14 -54 30 -60 35 -23 19 -87 59 -95 59
-19 0 -20 37 -7 213 6 94 43 220 76 268 11 15 20 30 20 33 0 3 24 44 54 89 29
46 55 87 57 93 11 26 72 124 77 125 10 1 29 5 97 20 33 7 65 13 71 15 73 14
121 36 137 63 10 17 18 33 17 36 -3 38 3 43 88 75 48 18 101 39 117 46 17 7
134 51 260 99 127 47 244 92 260 100 17 7 44 18 60 23 84 30 222 84 237 92 10
6 24 10 32 10 25 0 76 50 76 75 0 55 -19 75 -154 164 l-135 87 54 72 c67 89
107 173 139 295 39 143 49 240 32 298 -7 26 -5 28 71 53 44 14 89 33 100 41
30 21 37 65 18 111 -24 58 -50 80 -134 115 -42 17 -92 38 -111 46 -19 8 -44
19 -55 23 -11 4 -47 19 -80 33 -33 14 -132 55 -220 92 -88 36 -174 73 -192 81
-17 8 -35 14 -41 14 -5 0 -15 7 -22 15 -16 19 -21 223 -8 296 33 182 146 360
284 449 84 54 100 69 108 98 4 12 15 22 26 22 53 0 82 45 83 130 1 43 -5 65
-26 101 -23 39 -39 51 -110 84 -45 22 -84 40 -87 40 -3 1 -72 34 -155 74 -82
40 -197 96 -255 123 -58 28 -159 76 -225 108 -208 100 -375 180 -525 252 -80
39 -188 91 -240 115 -52 25 -156 75 -230 111 -155 74 -332 159 -505 242 -66
31 -160 77 -210 101 -49 24 -92 44 -95 44 -3 1 -34 16 -70 35 -36 19 -67 34
-70 35 -6 1 -68 31 -275 130 -340 164 -396 191 -500 240 -60 29 -180 86 -265
127 -250 121 -377 182 -505 243 -129 62 -258 124 -480 230 -77 37 -189 91
-250 120 -60 29 -168 81 -240 115 -71 34 -179 86 -240 115 -60 29 -181 87
-269 129 -87 42 -163 76 -170 75 -6 -1 -63 -12 -126 -25z"/>
</g>
</svg>
